<mxfile host="Electron" modified="2023-04-12T18:12:08.441Z" agent="Mozilla/5.0 (X11; Linux x86_64) AppleWebKit/537.36 (KHTML, like Gecko) draw.io/21.1.2 Chrome/106.0.5249.199 Electron/21.4.3 Safari/537.36" etag="MuS5xG14hFa4BmZIvodF" version="21.1.2" type="device">
  <diagram name="Page-1" id="NXxDMaqEIdDLewFXOo7f">
    <mxGraphModel dx="1540" dy="1405" grid="1" gridSize="10" guides="1" tooltips="1" connect="1" arrows="1" fold="1" page="1" pageScale="1" pageWidth="850" pageHeight="1100" math="0" shadow="0">
      <root>
        <mxCell id="0" />
        <mxCell id="1" parent="0" />
        <mxCell id="huu8jpy0MGpWpJNtJbA8-3" value="" style="rounded=1;whiteSpace=wrap;html=1;fillColor=#dae8fc;strokeColor=#6c8ebf;" vertex="1" parent="1">
          <mxGeometry x="1440" y="470" width="800" height="850" as="geometry" />
        </mxCell>
        <mxCell id="huu8jpy0MGpWpJNtJbA8-4" value="" style="rounded=1;whiteSpace=wrap;html=1;fillColor=#ffe6cc;strokeColor=#d79b00;" vertex="1" parent="1">
          <mxGeometry x="1470" y="546.5" width="730" height="743.5" as="geometry" />
        </mxCell>
        <mxCell id="huu8jpy0MGpWpJNtJbA8-5" value="" style="rounded=1;whiteSpace=wrap;html=1;fillColor=#d5e8d4;strokeColor=#82b366;" vertex="1" parent="1">
          <mxGeometry x="1587.5" y="621.63" width="505" height="308.37" as="geometry" />
        </mxCell>
        <mxCell id="huu8jpy0MGpWpJNtJbA8-6" value="&lt;font style=&quot;font-size: 33px;&quot;&gt;Profile&lt;/font&gt;" style="text;html=1;align=center;verticalAlign=middle;resizable=0;points=[];autosize=1;strokeColor=none;fillColor=none;" vertex="1" parent="1">
          <mxGeometry x="1550" y="480" width="120" height="50" as="geometry" />
        </mxCell>
        <mxCell id="huu8jpy0MGpWpJNtJbA8-7" value="&lt;font style=&quot;font-size: 33px;&quot;&gt;Service&lt;/font&gt;" style="text;html=1;align=center;verticalAlign=middle;resizable=0;points=[];autosize=1;strokeColor=none;fillColor=none;" vertex="1" parent="1">
          <mxGeometry x="1550" y="560" width="130" height="50" as="geometry" />
        </mxCell>
        <mxCell id="huu8jpy0MGpWpJNtJbA8-8" value="" style="rounded=1;whiteSpace=wrap;html=1;fillColor=#d5e8d4;strokeColor=#82b366;" vertex="1" parent="1">
          <mxGeometry x="1587.5" y="960" width="505" height="298.37" as="geometry" />
        </mxCell>
        <mxCell id="huu8jpy0MGpWpJNtJbA8-9" value="&lt;font style=&quot;font-size: 33px;&quot;&gt;Characteristic&lt;/font&gt;" style="text;html=1;align=center;verticalAlign=middle;resizable=0;points=[];autosize=1;strokeColor=none;fillColor=none;" vertex="1" parent="1">
          <mxGeometry x="1600" y="630" width="230" height="50" as="geometry" />
        </mxCell>
        <mxCell id="huu8jpy0MGpWpJNtJbA8-10" value="&lt;font style=&quot;font-size: 23px;&quot;&gt;Properties&lt;/font&gt;" style="rounded=1;whiteSpace=wrap;html=1;" vertex="1" parent="1">
          <mxGeometry x="1707.5" y="690" width="265" height="60" as="geometry" />
        </mxCell>
        <mxCell id="huu8jpy0MGpWpJNtJbA8-15" value="&lt;font style=&quot;font-size: 23px;&quot;&gt;Value&lt;/font&gt;" style="rounded=1;whiteSpace=wrap;html=1;fillColor=#fff2cc;strokeColor=#d6b656;" vertex="1" parent="1">
          <mxGeometry x="1707.5" y="760" width="265" height="60" as="geometry" />
        </mxCell>
        <mxCell id="huu8jpy0MGpWpJNtJbA8-16" value="&lt;font style=&quot;font-size: 23px;&quot;&gt;Descriptor&lt;/font&gt;" style="rounded=1;whiteSpace=wrap;html=1;fillColor=#e1d5e7;strokeColor=#9673a6;" vertex="1" parent="1">
          <mxGeometry x="1707.5" y="830" width="265" height="60" as="geometry" />
        </mxCell>
        <mxCell id="huu8jpy0MGpWpJNtJbA8-17" value="&lt;font style=&quot;font-size: 23px;&quot;&gt;Descriptor&lt;/font&gt;" style="rounded=1;whiteSpace=wrap;html=1;fillColor=#e1d5e7;strokeColor=#9673a6;" vertex="1" parent="1">
          <mxGeometry x="1707.5" y="1170" width="265" height="60" as="geometry" />
        </mxCell>
        <mxCell id="huu8jpy0MGpWpJNtJbA8-18" value="&lt;font style=&quot;font-size: 23px;&quot;&gt;Properties&lt;/font&gt;" style="rounded=1;whiteSpace=wrap;html=1;" vertex="1" parent="1">
          <mxGeometry x="1707.5" y="1030" width="265" height="60" as="geometry" />
        </mxCell>
        <mxCell id="huu8jpy0MGpWpJNtJbA8-19" value="&lt;font style=&quot;font-size: 23px;&quot;&gt;Value&lt;/font&gt;" style="rounded=1;whiteSpace=wrap;html=1;fillColor=#fff2cc;strokeColor=#d6b656;" vertex="1" parent="1">
          <mxGeometry x="1707.5" y="1100" width="265" height="60" as="geometry" />
        </mxCell>
        <mxCell id="huu8jpy0MGpWpJNtJbA8-20" value="&lt;font style=&quot;font-size: 33px;&quot;&gt;Characteristic&lt;/font&gt;" style="text;html=1;align=center;verticalAlign=middle;resizable=0;points=[];autosize=1;strokeColor=none;fillColor=none;" vertex="1" parent="1">
          <mxGeometry x="1600" y="970" width="230" height="50" as="geometry" />
        </mxCell>
      </root>
    </mxGraphModel>
  </diagram>
</mxfile>
